<svg width="66" height="69" viewBox="0 0 66 69" fill="none" xmlns="http://www.w3.org/2000/svg">
<path d="M66 22.425L17.7155 43.9185C13.7115 45.6895 10.3483 46.5779 7.62851 46.5779C4.54851 46.5779 2.31276 45.4509 0.926757 43.194C0.0550068 41.745 -0.200743 39.9079 0.156757 37.6798C0.514257 35.4516 1.46576 33.0798 3.00576 30.5555C4.29001 28.5143 6.39376 25.8319 9.32251 22.5055C8.32911 24.1404 7.60065 25.9355 7.16651 27.8185C6.39651 31.2541 7.08951 33.7755 9.24551 35.3855C10.2713 36.1359 11.682 36.5125 13.4805 36.5125C14.916 36.5125 16.533 36.271 18.3315 35.788L66 22.425Z" fill="black"/>
</svg>
